<svg id="Layer_1" data-name="Layer 1" xmlns="http://www.w3.org/2000/svg" viewBox="400 175 300 300"><defs><style>.cls-1{fill:#001560;}.cls-2{fill:#c19d6c;}</style></defs><path class="cls-1" d="M676.91,228.78a3.36,3.36,0,0,0-2.81-3.68c-3.69-1.08-7.33-2.32-11-3.53-26.71-8.85-113.49-37.93-113.49-37.93s-91.51,30.82-124.34,41.7a2.49,2.49,0,0,0-2.06,2.67c0,4.63-.24,8.34-.28,13a345.73,345.73,0,0,0,4.19,58.46c2.87,17.77,6.72,35.27,12.88,52.22a220.91,220.91,0,0,0,31.29,57.7c.34.46.54,1.17,1.49,1.09,0-.37.07-.73.11-1.09,1.26-12,2.54-24.05,5.68-35.78,4.32-16.16,10.66-31.32,21.74-44.16,5-5.85,11.05-10.56,17.26-15.09.13.23.21.32.19.34a4.54,4.54,0,0,1-.54.76c-9.78,9.81-15.86,21.71-19.81,34.83-5,16.62-5.65,33.53-3.17,50.6,2.27,15.7,7.68,30.21,17.39,42.93,12.41,16.24,28.87,23.64,49.24,22.44.76,0,1.82.14,2.17-.55s-.59-1.33-1.06-1.92c-3-3.8-6.25-7.48-9.15-11.39-19.51-26.28-29.05-55.22-23.29-88.17a130.76,130.76,0,0,1,3.52-14.68,6.52,6.52,0,0,1,0,3.14c-1.55,15.42-.07,30.44,6.22,44.73,10.25,23.35,29,37.9,51,49.08a2.14,2.14,0,0,0,2.58-.39c5.26-4.35,10.46-8.75,15.48-13.69-9.66-4.93-19.65-9-28.11-15.82-8.67-7-18-19.2-19.09-25.27,1.41,1.72,2.69,3.41,4.1,5A58.69,58.69,0,0,0,570,401c14,12.49,30.93,17.07,49.15,18.18,1.56.1,2.45-.72,3.34-1.78a213.54,213.54,0,0,0,16.18-22c23.24-36.37,33.42-76.8,37.28-119.22C677.39,260.07,677.07,244.88,676.91,228.78Zm-14.47,24.06a341.84,341.84,0,0,1-2.55,35.46c-4.37,35.06-14.35,68.23-33.1,98.46-1.41,2.26-3,3.32-5.71,3.15-23.33-1.41-42.41-10.23-54.3-31.31-4.47-7.93-6.85-16.49-5.69-25.75,2.11-16.85,16.25-25.61,32.44-20.1a34.73,34.73,0,0,1,9.77,5.09c1.23.93,1.75.65,2.54-.49,5.28-7.63,3.91-16.28-3.61-21.76-5.34-3.89-11.58-5.45-17.93-6.68a114.24,114.24,0,0,0-13.82-1.36,3,3,0,0,0-3.34,2c-.64,1.58-1.39,3.13-2.24,5-4.77-4.57-10.37-7.43-16.32-10.53H579.5a9.79,9.79,0,0,0-3.45-4.42c-5-4.07-11-5.56-17.12-6.74-11.27-2.2-22.68-2.16-34.08-1.77-13.67.47-27.28,1.74-40.84,3.56a2.71,2.71,0,0,0-2.17.88l17.39,8.89a82.08,82.08,0,0,0-16.88,9.41c-10.83,7.89-20.33,17.32-30.16,26.35l-4.87,4.46c-1-2.22-3.12-10.42-4.2-17.09-2.34-14.42-3.16-24.74-4.41-39.3-.55-6.42-1-12.84-1-19.29,0-3.46-.05-6-.17-9.45A3.16,3.16,0,0,1,440,236c24.25-8.09,109.6-36.71,109.6-36.71s102.11,34.09,109.88,36c2,.49,2.77,1.52,2.8,3.36C662.39,243.7,662.55,247.81,662.44,252.84Z"/><path class="cls-2" d="M646.11,317.64c-14.16,4.64-28.42,9-42.3,14.43-11.11,4.35-24.39,9.66-35.45,14.11a40,40,0,0,0,4.72,11.34s3.52-.89,4.65-1.21a286.07,286.07,0,0,1,31.19-7.1,257.69,257.69,0,0,1,28.51-3.35c1.47-.09,2.69-.37,3.22-2.13,2.42-8.11,5.28-16.09,7.27-24.33.16-.65.44-1.58.13-2C647.58,316.82,646.76,317.43,646.11,317.64Z"/><path class="cls-2" d="M653.28,265.85c-1.26.44-2.5.92-3.75,1.4a467.81,467.81,0,0,0-46.6,20.93c.19.34.21.43.27.47l2.11,1.48c5.88,4.17,9.8,9.52,9.82,17,0,2.37.87,2.12,2.51,1.49a267.58,267.58,0,0,1,31.47-10.38c2.61-.65,3.52-2.06,3.69-4.58.28-4,.82-7.95,1.25-11.92.51-4.68,1-9.36,1.5-14C655.8,265.18,655.58,265,653.28,265.85Z"/><path class="cls-2" d="M628.47,362.35q-10.86,1.36-21.59,3.54a203.3,203.3,0,0,0-21.22,5.25,7.45,7.45,0,0,0,.73.79c9.66,7.43,20.76,10.81,32.78,11.57.7.05,2.08,0,2.08,0a19.56,19.56,0,0,0,1.31-2c2.78-5.19,5.68-10.31,8.54-15.46.5-.9,1.53-3.49,1.53-3.49C632.44,362,629.66,362.21,628.47,362.35Z"/><path class="cls-2" d="M567.83,330.83l24.35-11.63C581.76,314.2,570.46,319.58,567.83,330.83Z"/><path class="cls-2" d="M654.29,239.84c-6.14-2.43-104.65-33.11-104.65-33.11s-90.83,29.39-102.79,33.2c-2,.65-3,1.69-3,3.84,0,2.83.12,5.13.15,7.95a328.41,328.41,0,0,0,3.47,43.17c.76,5.27,1.31,10.59,3,15.69.37,1.09.64,2.05,2,.69a184.87,184.87,0,0,1,23.63-20.18c3-2.18,5.95-4.42,9.15-6.81l-24.93-12.5a2.22,2.22,0,0,1,1.84-.76c8.34-1,16.69-1.94,25-3a354.8,354.8,0,0,1,51.7-3.25c9.68.18,19.29.9,28.62,3.76,7.17,2.2,13.56,5.47,17.56,12.18.74,1.23,1.44.8,2.31.25,2.92-1.84,5.85-3.68,8.8-5.48,18.8-11.41,37.51-23,58.36-30.49.78-.28,1.78-.6,1.85-1.49C656.58,240.91,656.05,240.53,654.29,239.84ZM558,242.48l5.2,16-13.6-9.88L536,258.47l5.19-16-13.6-9.88h16.81l5.2-16,5.19,16h16.82Z"/></svg>