<svg id="Layer_1" data-name="Layer 1" xmlns="http://www.w3.org/2000/svg" viewBox="0 0 365.83 232.95"><defs><style>.cls-1{fill:#1a4899;}.cls-2{fill:#c19d6c;}</style></defs><path class="cls-1" d="M1697.57,251.17a1.83,1.83,0,0,0-1.54-2c-2-.59-4-1.26-6-1.92-14.58-4.84-62-20.72-62-20.72s-50,16.83-67.89,22.77a1.36,1.36,0,0,0-1.13,1.46c0,2.53-.13,4.55-.15,7.08a188.39,188.39,0,0,0,2.29,31.92,156.17,156.17,0,0,0,7,28.52,120.83,120.83,0,0,0,17.08,31.5c.19.25.3.64.82.6l.06-.6a126.25,126.25,0,0,1,3.1-19.53c2.36-8.83,5.82-17.11,11.87-24.12a54.5,54.5,0,0,1,9.43-8.24c.07.13.11.18.1.19a2.5,2.5,0,0,1-.29.41c-5.35,5.36-8.66,11.86-10.82,19a63,63,0,0,0-1.73,27.63,49.5,49.5,0,0,0,9.49,23.44c6.78,8.87,15.77,12.91,26.89,12.26.42,0,1,.07,1.18-.3s-.32-.73-.57-1c-1.67-2.08-3.42-4.09-5-6.22-10.65-14.35-15.87-30.15-12.72-48.15a71.27,71.27,0,0,1,1.92-8,3.53,3.53,0,0,1,0,1.71c-.85,8.42,0,16.62,3.39,24.43,5.6,12.75,15.87,20.69,27.88,26.8a1.17,1.17,0,0,0,1.41-.22c2.87-2.37,5.71-4.77,8.45-7.47-5.27-2.69-10.73-4.93-15.35-8.64s-9.82-10.48-10.42-13.8c.77.94,1.47,1.86,2.24,2.72a30.56,30.56,0,0,0,2.53,2.56c7.64,6.82,16.89,9.32,26.83,9.93a2.1,2.1,0,0,0,1.83-1,117.8,117.8,0,0,0,8.83-12c12.69-19.86,18.25-41.94,20.36-65.1C1697.83,268.26,1697.65,260,1697.57,251.17Zm-7.9,13.14a187.25,187.25,0,0,1-1.4,19.36c-2.38,19.15-7.84,37.25-18.07,53.76a3.07,3.07,0,0,1-3.12,1.72c-12.74-.77-23.16-5.58-29.65-17.09a22.53,22.53,0,0,1-3.11-14.07c1.15-9.19,8.88-14,17.72-11a18.94,18.94,0,0,1,5.33,2.78c.67.51,1,.36,1.39-.27,2.88-4.16,2.13-8.89-2-11.88-2.92-2.12-6.33-3-9.79-3.65a63.68,63.68,0,0,0-7.55-.74,1.63,1.63,0,0,0-1.82,1.08c-.36.87-.76,1.71-1.23,2.74-2.6-2.5-5.66-4.06-8.91-5.75h16.88a5.33,5.33,0,0,0-1.88-2.41c-2.72-2.22-6-3-9.35-3.68a82.17,82.17,0,0,0-18.6-1c-7.47.26-14.9,1-22.31,2a1.48,1.48,0,0,0-1.18.48l9.49,4.85a44.88,44.88,0,0,0-9.21,5.14c-5.92,4.31-11.1,9.46-16.47,14.39l-2.66,2.43a56.09,56.09,0,0,1-2.29-9.33c-1.28-7.87-1.73-13.51-2.41-21.46-.3-3.5-.53-7-.53-10.53,0-1.89,0-3.28-.09-5.16a1.71,1.71,0,0,1,1.34-1.9c13.25-4.42,59.85-20,59.85-20s55.76,18.61,60,19.65a1.7,1.7,0,0,1,1.53,1.83C1689.63,259.32,1689.72,261.56,1689.67,264.31Z" transform="translate(-1440.89 -226.52)"/><path class="cls-1" d="M1470.51,394.84l17.91,37.1h-8.05l-4.51-9.38h-21.78l-4.51,9.38h-7.89l17.86-37.1Zm-5.35,5.36h-.32L1457,416.47h16Z" transform="translate(-1440.89 -226.52)"/><path class="cls-1" d="M1531.14,425.64v6.3h-31.48v-37.1h7.15v30.8Z" transform="translate(-1440.89 -226.52)"/><path class="cls-1" d="M1550.86,401.15v30.79h-7.21V401.15h-15.21v-6.31h37.63v6.31Z" transform="translate(-1440.89 -226.52)"/><path class="cls-1" d="M1596.44,394.84l17.91,37.1h-8l-4.51-9.38H1580l-4.51,9.38h-7.89l17.86-37.1Zm-5.36,5.36h-.31l-7.85,16.27h16Z" transform="translate(-1440.89 -226.52)"/><path class="cls-1" d="M1632.74,394.84v37.1h-7.15v-37.1Z" transform="translate(-1440.89 -226.52)"/><path class="cls-1" d="M1654.21,417.9v14h-7.16v-37.1h24.86q7.2,0,10.25,2.18c2,1.45,3,3.88,3,7.31v1.38c0,2.75-.53,4.78-1.59,6.07a7.48,7.48,0,0,1-5.09,2.36v.26q3.66.59,5.17,2.25c1,1.12,1.51,3.17,1.51,6.18v9.11H1678v-8.21c0-2.4-.53-4-1.59-4.72s-3.3-1.11-6.73-1.11Zm15.37-17h-15.37V411.8h16.43c2.82,0,4.76-.38,5.8-1.14s1.56-2.12,1.56-4.1v-.32c0-2.09-.58-3.49-1.75-4.22S1672.86,400.94,1669.58,400.94Z" transform="translate(-1440.89 -226.52)"/><path class="cls-1" d="M1706,394.84v37.1h-7.16v-37.1Z" transform="translate(-1440.89 -226.52)"/><path class="cls-1" d="M1739.85,401.15v30.79h-7.2V401.15h-15.22v-6.31h37.63v6.31Z" transform="translate(-1440.89 -226.52)"/><path class="cls-1" d="M1805.94,394.84v37.1h-7.2V416.41h-25.13v15.53h-7.15v-37.1h7.15v15.48h25.13V394.84Z" transform="translate(-1440.89 -226.52)"/><path class="cls-1" d="M1540.58,446.55c.8-.87,2.34-1.31,4.57-1.31h.95a8.08,8.08,0,0,1,3.82.72,3.54,3.54,0,0,1,1.68,2.25l.05.18h2.43l-.06-.3a5.68,5.68,0,0,0-2.41-3.78,9.71,9.71,0,0,0-5.21-1.17h-1.58c-2.72,0-4.73.59-6,1.77s-1.87,3-1.87,5.47v1.85c0,2.45.63,4.29,1.87,5.47s3.25,1.78,6,1.78h1.58a9.78,9.78,0,0,0,5.21-1.17,5.68,5.68,0,0,0,2.41-3.78l.06-.3h-2.43l-.05.18a3.51,3.51,0,0,1-1.68,2.25,8.1,8.1,0,0,1-3.82.71h-.95a10.41,10.41,0,0,1-2.92-.35,3.62,3.62,0,0,1-1.73-1.06,4.13,4.13,0,0,1-.87-1.69,10.14,10.14,0,0,1-.26-2.48v-.94A6.29,6.29,0,0,1,1540.58,446.55Z" transform="translate(-1440.89 -226.52)"/><path class="cls-1" d="M1573.62,443.36l-7.91,15.9h2.61l2.33-4.67h9.08l2.31,4.67h2.63l-7.9-15.9Zm5.07,9.13h-7l3.52-7.09Z" transform="translate(-1440.89 -226.52)"/><path class="cls-1" d="M1607.45,443.36h-10v15.9h2.35v-5.79h7.62a6.4,6.4,0,0,0,4.23-1.16,4.44,4.44,0,0,0,1.35-3.51v-.66a4.53,4.53,0,0,0-1.35-3.68A6.6,6.6,0,0,0,1607.45,443.36Zm-7.62,2.08H1607a5,5,0,0,1,2.93.62,2.73,2.73,0,0,1,.74,2.21v.29a2.74,2.74,0,0,1-.75,2.21,4.7,4.7,0,0,1-2.9.64h-7.18Z" transform="translate(-1440.89 -226.52)"/><rect class="cls-1" x="185.3" y="216.83" width="2.35" height="15.9"/><polygon class="cls-1" points="200.57 218.96 207.32 218.96 207.32 232.74 209.67 232.74 209.67 218.96 216.42 218.96 216.42 216.84 200.57 216.84 200.57 218.96"/><path class="cls-1" d="M1676.93,443.36h-3.15l-7.9,15.9h2.6l2.33-4.67h9.09l2.31,4.67h2.63L1677,443.5Zm1.93,9.13h-7l3.53-7.09Z" transform="translate(-1440.89 -226.52)"/><polygon class="cls-1" points="259.1 230.61 259.1 216.84 256.75 216.84 256.75 232.74 269.75 232.74 269.75 230.61 259.1 230.61"/><path class="cls-2" d="M1680.75,299.69c-7.73,2.53-15.52,4.91-23.1,7.88-6.07,2.37-13.32,5.28-19.36,7.71a22,22,0,0,0,2.58,6.19l2.54-.66a154.83,154.83,0,0,1,17-3.88A140.34,140.34,0,0,1,1676,315.1c.8-.05,1.47-.2,1.75-1.16,1.33-4.43,2.89-8.79,4-13.29.08-.35.23-.86.07-1.08S1681.1,299.57,1680.75,299.69Z" transform="translate(-1440.89 -226.52)"/><path class="cls-2" d="M1684.66,271.41c-.68.24-1.36.51-2,.76a258.59,258.59,0,0,0-25.45,11.43c.1.19.11.24.14.26l1.16.81c3.21,2.28,5.35,5.2,5.36,9.29,0,1.29.48,1.15,1.37.81a146.33,146.33,0,0,1,17.18-5.67,2.35,2.35,0,0,0,2-2.5c.16-2.17.45-4.34.68-6.51.28-2.55.56-5.11.82-7.66C1686,271.05,1685.92,271,1684.66,271.41Z" transform="translate(-1440.89 -226.52)"/><path class="cls-2" d="M1671.11,324.11q-5.92.74-11.78,1.93a112.53,112.53,0,0,0-11.59,2.86c.23.25.3.36.4.44a31.79,31.79,0,0,0,17.9,6.31c.38,0,1.13,0,1.13,0a10.35,10.35,0,0,0,.72-1.09c1.52-2.83,3.1-5.63,4.66-8.44.27-.49.84-1.91.84-1.91C1673.28,323.89,1671.76,324,1671.11,324.11Z" transform="translate(-1440.89 -226.52)"/><path class="cls-2" d="M1638,306.89l13.3-6.34A9.2,9.2,0,0,0,1638,306.89Z" transform="translate(-1440.89 -226.52)"/><path class="cls-2" d="M1685.21,257.21c-3.35-1.33-57.14-18.08-57.14-18.08s-49.6,16.05-56.13,18.13a2,2,0,0,0-1.64,2.1c0,1.54.07,2.8.09,4.34a178.87,178.87,0,0,0,1.89,23.57,47.94,47.94,0,0,0,1.65,8.56c.2.6.35,1.12,1.08.38a102.68,102.68,0,0,1,12.9-11c1.64-1.19,3.25-2.41,5-3.71l-13.61-6.83a1.18,1.18,0,0,1,1-.41c4.56-.55,9.11-1.06,13.66-1.64a193.34,193.34,0,0,1,28.24-1.78,56.22,56.22,0,0,1,15.63,2.06c3.91,1.2,7.4,3,9.58,6.65.4.67.79.43,1.26.13,1.6-1,3.2-2,4.81-3,10.26-6.23,20.48-12.55,31.86-16.65.43-.15,1-.32,1-.81C1686.46,257.8,1686.18,257.59,1685.21,257.21Zm-52.55,1.44,2.84,8.73-7.43-5.4-7.43,5.4,2.84-8.73-7.43-5.4h9.18l2.84-8.73,2.84,8.73h9.18Z" transform="translate(-1440.89 -226.52)"/><rect class="cls-2" x="288" y="224.65" width="77.83" height="1"/><rect class="cls-2" y="224.65" width="77.83" height="1"/></svg>