<svg id="Layer_1" data-name="Layer 1" xmlns="http://www.w3.org/2000/svg" viewBox="250 250 600 150"><defs><style>.cls-1{fill:#1a4899;}.cls-2{fill:#c19d6c;}</style></defs><path class="cls-1" d="M419.24,278.49a1.62,1.62,0,0,0-1.36-1.78c-1.78-.52-3.54-1.12-5.3-1.7-12.91-4.28-54.86-18.34-54.86-18.34s-44.23,14.9-60.11,20.15a1.21,1.21,0,0,0-1,1.29c0,2.24-.12,4-.14,6.28a168.26,168.26,0,0,0,2,28.26,138.12,138.12,0,0,0,6.23,25.24,106.8,106.8,0,0,0,15.12,27.89c.17.22.26.57.72.53,0-.18,0-.36.05-.53a111.08,111.08,0,0,1,2.75-17.3c2.09-7.81,5.15-15.14,10.51-21.35a48.31,48.31,0,0,1,8.34-7.29c.07.11.1.16.09.17a1.83,1.83,0,0,1-.26.36,39.18,39.18,0,0,0-9.57,16.84A55.89,55.89,0,0,0,331,361.67a43.82,43.82,0,0,0,8.41,20.75c6,7.85,14,11.43,23.8,10.85.37,0,.88.07,1-.27s-.28-.64-.51-.92c-1.47-1.84-3-3.62-4.43-5.51-9.42-12.7-14-26.69-11.25-42.62a62.75,62.75,0,0,1,1.7-7.1,3.11,3.11,0,0,1,0,1.52,42.21,42.21,0,0,0,3,21.62c5,11.29,14,18.32,24.68,23.73a1.05,1.05,0,0,0,1.25-.19c2.54-2.1,5.05-4.23,7.48-6.62-4.67-2.38-9.5-4.36-13.59-7.65s-8.7-9.28-9.23-12.21c.68.83,1.3,1.65,2,2.4a28.24,28.24,0,0,0,2.24,2.27c6.77,6,14.95,8.25,23.76,8.79a1.84,1.84,0,0,0,1.61-.86A104.35,104.35,0,0,0,400.75,359c11.23-17.58,16.15-37.12,18-57.63A224.14,224.14,0,0,0,419.24,278.49Zm-7,11.63A166.58,166.58,0,0,1,411,307.26c-2.11,16.95-6.94,33-16,47.59a2.72,2.72,0,0,1-2.76,1.53c-11.28-.68-20.5-4.95-26.25-15.14a19.9,19.9,0,0,1-2.75-12.45c1-8.14,7.86-12.37,15.69-9.71a16.73,16.73,0,0,1,4.72,2.46c.59.45.84.31,1.23-.24a7.22,7.22,0,0,0-1.75-10.52c-2.58-1.88-5.6-2.63-8.66-3.23a57.6,57.6,0,0,0-6.69-.65,1.43,1.43,0,0,0-1.61,1c-.31.77-.67,1.52-1.08,2.43a32.68,32.68,0,0,0-7.9-5.09h14.95a4.71,4.71,0,0,0-1.67-2.14c-2.41-2-5.32-2.68-8.27-3.26a72.71,72.71,0,0,0-16.47-.85c-6.61.23-13.19.84-19.75,1.72a1.31,1.31,0,0,0-1,.43l8.4,4.29a39.82,39.82,0,0,0-8.16,4.56c-5.24,3.81-9.82,8.36-14.58,12.73-.61.57-2.35,2.15-2.35,2.15a48.94,48.94,0,0,1-2-8.26c-1.13-7-1.53-12-2.13-19-.27-3.11-.47-6.21-.47-9.33,0-1.67,0-2.9-.08-4.57a1.53,1.53,0,0,1,1.19-1.68c11.72-3.91,53-17.74,53-17.74s49.36,16.48,53.12,17.4a1.5,1.5,0,0,1,1.35,1.62C412.22,285.7,412.3,287.69,412.25,290.12Z"/><path class="cls-2" d="M404.35,321.44c-6.84,2.24-13.74,4.35-20.45,7-5.37,2.1-11.79,4.67-17.13,6.82a19.14,19.14,0,0,0,2.28,5.48s1.7-.43,2.25-.59a138.61,138.61,0,0,1,15.07-3.43,127.7,127.7,0,0,1,13.79-1.62c.71,0,1.3-.18,1.55-1,1.17-3.92,2.56-7.77,3.52-11.76.07-.31.21-.76.06-1S404.66,321.34,404.35,321.44Z"/><path class="cls-2" d="M407.82,296.41c-.61.21-1.21.44-1.81.67a227,227,0,0,0-22.53,10.12c.09.16.1.21.13.23l1,.72c2.84,2,4.74,4.6,4.75,8.22,0,1.14.42,1,1.21.72a128.9,128.9,0,0,1,15.21-5,2.11,2.11,0,0,0,1.79-2.21c.13-1.93.39-3.85.6-5.77.24-2.26.5-4.52.72-6.78C409,296.09,408.93,296,407.82,296.41Z"/><path class="cls-2" d="M395.82,343.06q-5.25.65-10.43,1.71a100.26,100.26,0,0,0-10.26,2.53c.2.22.27.32.35.39a28.21,28.21,0,0,0,15.85,5.59c.34,0,1,0,1,0a9.8,9.8,0,0,0,.64-1c1.34-2.51,2.74-5,4.12-7.47.25-.44.75-1.69.75-1.69C397.74,342.86,396.4,343,395.82,343.06Z"/><path class="cls-2" d="M366.51,327.82l11.77-5.62A8.14,8.14,0,0,0,366.51,327.82Z"/><path class="cls-2" d="M408.31,283.83c-3-1.17-50.59-16-50.59-16S313.81,282,308,283.88a1.74,1.74,0,0,0-1.45,1.86c0,1.36.06,2.47.07,3.84a160.13,160.13,0,0,0,1.68,20.86,42.57,42.57,0,0,0,1.46,7.59c.18.53.31,1,1,.33a90,90,0,0,1,11.42-9.75c1.45-1.05,2.88-2.14,4.42-3.29l-12-6.05a1.08,1.08,0,0,1,.89-.36c4-.48,8.07-.94,12.1-1.45a172.49,172.49,0,0,1,25-1.58,50.09,50.09,0,0,1,13.83,1.82c3.47,1.07,6.56,2.65,8.49,5.89.36.6.7.39,1.12.12,1.41-.89,2.82-1.78,4.25-2.65,9.09-5.51,18.13-11.11,28.21-14.74.38-.13.86-.28.89-.71C409.41,284.35,409.16,284.17,408.31,283.83Zm-46.53,1.28,2.51,7.73-6.57-4.78-6.58,4.78,2.51-7.73-6.57-4.78h8.13l2.51-7.73,2.51,7.73h8.13Z"/><path class="cls-1" d="M467.31,294.68l17.91,37.1h-8.05l-4.51-9.38H450.88l-4.51,9.38h-7.89l17.86-37.1ZM462,300h-.32l-7.85,16.27h16Z"/><path class="cls-1" d="M527.94,325.48v6.3H496.46v-37.1h7.15v30.8Z"/><path class="cls-1" d="M547.66,301v30.79h-7.21V301H525.24v-6.31h37.63V301Z"/><path class="cls-1" d="M593.24,294.68l17.91,37.1h-8l-4.51-9.38H576.81l-4.51,9.38h-7.89l17.86-37.1ZM587.88,300h-.31l-7.85,16.27h16Z"/><path class="cls-1" d="M629.54,294.68v37.1h-7.15v-37.1Z"/><path class="cls-1" d="M651,317.74v14h-7.16v-37.1h24.86q7.2,0,10.25,2.18c2,1.45,3,3.88,3,7.31v1.38c0,2.75-.53,4.78-1.59,6.07a7.48,7.48,0,0,1-5.09,2.36v.26q3.66.58,5.17,2.25t1.51,6.18v9.11H674.8v-8.21c0-2.4-.53-4-1.59-4.72s-3.3-1.11-6.73-1.11Zm15.37-17H651v10.86h16.43c2.82,0,4.76-.38,5.8-1.14s1.56-2.13,1.56-4.1v-.32c0-2.09-.58-3.49-1.75-4.22S669.66,300.78,666.38,300.78Z"/><path class="cls-1" d="M702.84,294.68v37.1h-7.16v-37.1Z"/><path class="cls-1" d="M736.65,301v30.79h-7.2V301H714.23v-6.31h37.63V301Z"/><path class="cls-1" d="M802.74,294.68v37.1h-7.2V316.25H770.41v15.53h-7.15v-37.1h7.15v15.48h25.13V294.68Z"/><path class="cls-1" d="M537.38,346.39c.8-.87,2.34-1.31,4.57-1.31h.95a8,8,0,0,1,3.82.72,3.54,3.54,0,0,1,1.68,2.25l.05.18h2.43l-.06-.3a5.68,5.68,0,0,0-2.41-3.78A9.71,9.71,0,0,0,543.2,343h-1.58c-2.72,0-4.73.59-6,1.77s-1.87,3-1.87,5.47v1.85c0,2.45.63,4.29,1.87,5.47s3.25,1.78,6,1.78h1.58a9.78,9.78,0,0,0,5.21-1.17,5.71,5.71,0,0,0,2.41-3.78l.06-.31h-2.43l-.05.19a3.51,3.51,0,0,1-1.68,2.25,8.1,8.1,0,0,1-3.82.71H542a10.41,10.41,0,0,1-2.92-.35,3.62,3.62,0,0,1-1.73-1.06,4.13,4.13,0,0,1-.87-1.69,10.14,10.14,0,0,1-.26-2.48v-.94A6.29,6.29,0,0,1,537.38,346.39Z"/><path class="cls-1" d="M570.42,343.2l-7.91,15.9h2.61l2.33-4.67h9.08l2.31,4.67h2.63l-7.9-15.9Zm5.07,9.13h-7l3.52-7.09Z"/><path class="cls-1" d="M604.26,343.2h-10v15.9h2.35v-5.79h7.63a6.39,6.39,0,0,0,4.22-1.16,4.44,4.44,0,0,0,1.35-3.51V348a4.56,4.56,0,0,0-1.34-3.68A6.63,6.63,0,0,0,604.26,343.2Zm-7.63,2.08h7.16a5,5,0,0,1,2.93.62,2.73,2.73,0,0,1,.74,2.21v.29a2.74,2.74,0,0,1-.75,2.21,4.69,4.69,0,0,1-2.89.64h-7.19Z"/><rect class="cls-1" x="622.99" y="343.2" width="2.35" height="15.9"/><polygon class="cls-1" points="638.26 345.32 645.01 345.32 645.01 359.1 647.36 359.1 647.36 345.32 654.11 345.32 654.11 343.2 638.26 343.2 638.26 345.32"/><path class="cls-1" d="M673.73,343.2h-3.15l-7.9,15.9h2.6l2.33-4.67h9.09L679,359.1h2.63l-7.84-15.76Zm1.93,9.13h-7l3.53-7.09Z"/><polygon class="cls-1" points="696.79 356.97 696.79 343.2 694.45 343.2 694.45 359.1 707.44 359.1 707.44 356.97 696.79 356.97"/><rect class="cls-2" x="725.69" y="351.01" width="77.83" height="1"/><rect class="cls-2" x="437.69" y="351.01" width="77.83" height="1"/></svg>